<svg width="106" height="55" viewBox="0 0 106 55" fill="none" xmlns="http://www.w3.org/2000/svg">
<g clip-path="url(#clip0)">
<path d="M81.3586 31.9179H92.3345C92.3345 31.9179 93.4321 29.8245 93.5693 26.0455V25.692C93.4321 21.913 92.3345 19.8196 92.3345 19.8196H86.2703L79.6848 23.1908C79.6573 23.3267 79.6299 23.4627 79.6299 23.5986L81.3586 31.9179ZM82.5111 25.8008C82.5659 23.7346 83.1971 22.5927 83.1971 22.5927H89.7826C89.7826 22.5927 90.4137 23.7346 90.4686 25.8008V25.9911C90.3863 28.0573 89.7826 29.1992 89.7826 29.1992H83.1971C83.1971 29.1992 82.5659 28.0573 82.5111 25.9911V25.8008Z" fill="white"/>
<path d="M29.2236 25.7191V26.0726C29.3608 29.8516 30.4584 31.945 30.4584 31.945H42.1203C42.1203 31.945 43.2179 29.8516 43.3551 26.0726V25.7191C43.2179 21.9401 42.1203 19.8467 42.1203 19.8467H30.4584C30.4584 19.8467 29.3608 21.9401 29.2236 25.7191ZM32.2969 25.8007C32.3792 23.7345 32.9829 22.5926 32.9829 22.5926H39.5684C39.5684 22.5926 40.1996 23.7345 40.2544 25.8007V25.991C40.1721 28.0573 39.5684 29.1991 39.5684 29.1991H32.9829C32.9829 29.1991 32.3518 28.0573 32.2969 25.991V25.8007Z" fill="white"/>
<path d="M44.0127 19.8469L47.086 18.3516V31.918H44.0127V19.8469Z" fill="white"/>
<path d="M10.6741 19.8467V27.8126L3.3751 19.8467H0V31.9179H3.07326V23.816L10.4271 31.9179H13.7473V19.8467H10.6741Z" fill="white"/>
<path d="M14.4336 25.7191V26.0726C14.5708 29.8516 15.6684 31.945 15.6684 31.945H27.3303C27.3303 31.945 28.4279 29.8516 28.5651 26.0726V25.7191C28.5377 25.257 28.5102 24.7948 28.4828 24.387H22.7204L20.5801 27.4048H25.3546C25.1351 28.5738 24.8058 29.2263 24.8058 29.2263H18.2203C18.2203 29.2263 17.5892 28.0844 17.5343 26.0182V25.8279C17.5617 23.7073 18.1928 22.5654 18.1928 22.5654H28.1809C27.8242 20.7982 27.3029 19.8467 27.3029 19.8467H15.6409C15.6409 19.8467 14.5434 21.9401 14.4336 25.7191Z" fill="white"/>
<path d="M48.623 25.7191V26.0726C48.6505 26.5348 48.6779 26.997 48.7054 27.4048H59.9008L61.8216 24.387H51.8335C52.053 23.2179 52.3823 22.5654 52.3823 22.5654H61.6844L59.1325 19.8467H49.8578C49.8578 19.8467 48.7602 21.9401 48.623 25.7191ZM58.6935 29.1991H49.309C49.6658 30.9663 50.1871 31.9179 50.1871 31.9179H56.8824L58.6935 29.1991Z" fill="white"/>
<path d="M106.001 8.23777L75.4601 11.5002L73.457 0L66.7617 12.4518L54.7705 13.7296L82.4573 43.6357L78.3139 22.6742L106.001 8.23777ZM56.3071 15.388L56.8011 15.4696L64.7586 19.6021L70.9874 11.3643C70.9874 11.3643 72.5789 9.21651 73.0729 12.044L77.9846 38.8779L56.3071 15.388Z" fill="url(#paint0_linear)"/>
<path d="M58.2828 17.427L63.9354 23.4898L58.2005 31.9451H61.6579L65.8288 25.5017L76.2833 36.7029L71.7009 12.5333L65.4172 21.2876L58.2828 17.427ZM69.9722 19.1398V24.0607L67.6398 22.7285L69.9722 19.1398Z" fill="url(#paint1_linear)"/>
<path d="M36.2477 16.6387C36.2477 16.6387 35.3971 17.998 34.4367 18.433C33.4763 18.868 32.1592 19.3302 32.1592 19.3302H40.3088C40.3088 19.3302 39.0191 18.868 38.0587 18.433C37.0983 17.998 36.2477 16.6387 36.2477 16.6387Z" fill="white"/>
<path d="M0.411133 40.5365C0.411133 38.2256 2.19472 36.5671 4.60942 36.5671C5.95398 36.5671 7.05157 37.0565 7.79244 37.9265L6.63997 38.9868C6.11861 38.3887 5.46006 38.0896 4.69174 38.0896C3.23743 38.0896 2.22216 39.0956 2.22216 40.5365C2.22216 41.9774 3.23743 42.9834 4.69174 42.9834C5.46006 42.9834 6.11861 42.6843 6.63997 42.0862L7.79244 43.1465C7.05157 44.0437 5.95398 44.5058 4.60942 44.5058C2.22216 44.5058 0.411133 42.8474 0.411133 40.5365Z" fill="white"/>
<path d="M9.19141 40.9986V36.703H10.975V40.9171C10.975 42.3852 11.6061 42.9833 12.7037 42.9833C13.8013 42.9833 14.4324 42.3852 14.4324 40.9171V36.703H16.1886V40.9986C16.1886 43.2552 14.8714 44.5058 12.6763 44.5058C10.5085 44.5058 9.19141 43.2552 9.19141 40.9986ZM12.5116 35.6155C12.9507 35.4252 13.0879 35.2077 13.0879 34.9359C13.0879 34.664 12.8683 34.4737 12.5665 34.4737C12.347 34.4737 12.1275 34.528 11.9079 34.6912L11.5512 34.0115C11.8805 33.7668 12.2921 33.6309 12.7586 33.6309C13.5543 33.6309 14.0757 34.093 14.0757 34.7999C14.0757 35.4252 13.7464 35.8602 13.0604 36.1865L12.5116 35.6155Z" fill="white"/>
<path d="M23.2138 42.7385H19.6192L18.9332 44.3697H17.0947L20.5521 36.7029H22.3083L25.7931 44.3697H23.9272L23.2138 42.7385ZM22.665 41.3791L21.4302 38.4429L20.1954 41.3791H22.665Z" fill="white"/>
<path d="M7.24416 47.9583V54.891H5.92705L2.41475 50.677V54.891H0.823242V47.9583H2.16779L5.65265 52.1723V47.9583H7.24416Z" fill="white"/>
<path d="M13.8025 53.3958H10.5646L9.9335 54.8911H8.28711L11.4152 47.9583H13.0068L16.1349 54.8911H14.4336L13.8025 53.3958ZM10.3451 45.9736H11.3329C11.3604 46.4086 11.7171 46.6805 12.1836 46.6805C12.65 46.6805 13.0342 46.4086 13.0342 45.9736H14.022C13.9946 46.898 13.2263 47.4689 12.1836 47.4689C11.1683 47.4689 10.4 46.898 10.3451 45.9736ZM13.3086 52.1995L12.211 49.5352L11.1134 52.1995H13.3086Z" fill="white"/>
<path d="M23.5164 54.891V50.7314L21.4584 54.157H20.7176L18.6596 50.8129V54.891H17.1504V47.9583H18.4949L21.1017 52.2539L23.6811 47.9583H24.9982L25.0256 54.891H23.5164Z" fill="white"/>
<path d="M34.6895 54.9764H42.4549L42.4275 51.9314L34.6895 51.9586V54.9764Z" fill="url(#paint2_linear)"/>
<path d="M31.6162 47.4456L31.6436 51.9315L34.7169 54.9493V47.4456H31.6162Z" fill="url(#paint3_linear)"/>
<path d="M34.7169 44.2917L31.6162 47.4455H39.2719V44.2917H34.7169Z" fill="url(#paint4_linear)"/>
<path d="M42.4555 39.7788H39.2725V47.4728L42.4829 44.2919L42.4555 39.7788Z" fill="url(#paint5_linear)"/>
<path d="M39.2445 36.7065H31.6162L31.6436 39.7515H42.4549L39.2445 36.7065Z" fill="white"/>
<path d="M56.6684 36.7882L52.0859 36.761L52.1134 39.806H59.8789L56.6684 36.7882Z" fill="white"/>
<path d="M52.0864 55.0037L56.6414 54.9765L56.614 51.9587H48.876L52.0864 55.0037Z" fill="url(#paint6_linear)"/>
<path d="M56.6133 39.833L56.6407 55.0035L59.8786 51.9042V39.833H56.6133Z" fill="url(#paint7_linear)"/>
<path d="M52.0865 36.761L48.8486 39.806L48.8761 51.9859H52.114L52.0865 36.761Z" fill="url(#paint8_linear)"/>
<path d="M69.2988 54.9764H77.0643L77.0369 51.9314L69.2988 51.9586V54.9764Z" fill="url(#paint9_linear)"/>
<path d="M66.2256 47.4456L66.253 51.9315L69.3262 54.9493V47.4456H66.2256Z" fill="url(#paint10_linear)"/>
<path d="M69.3263 44.2917L66.2256 47.4455H73.8813V44.2917H69.3263Z" fill="url(#paint11_linear)"/>
<path d="M77.0366 39.7786H73.8535V47.4726L77.064 44.2917L77.0366 39.7786Z" fill="url(#paint12_linear)"/>
<path d="M73.8538 36.7065H66.2256L66.253 39.7515H77.0643L73.8538 36.7065Z" fill="white"/>
<path d="M91.2787 36.7882L86.6963 36.761L86.7237 39.806H94.4892L91.2787 36.7882Z" fill="white"/>
<path d="M86.6685 55.0035L91.2235 54.9763L91.196 51.9585H83.458L86.6685 55.0035Z" fill="url(#paint13_linear)"/>
<path d="M91.2236 39.833L91.2511 55.0035L94.489 51.9042V39.833H91.2236Z" fill="url(#paint14_linear)"/>
<path d="M86.6959 36.761L83.458 39.806L83.4854 51.9859H86.7233L86.6959 36.761Z" fill="url(#paint15_linear)"/>
</g>
<defs>
<linearGradient id="paint0_linear" x1="54.2161" y1="47.9993" x2="95.3399" y2="70.7768" gradientUnits="userSpaceOnUse">
<stop stop-color="#EFD16E"/>
<stop offset="1" stop-color="#613B02"/>
</linearGradient>
<linearGradient id="paint1_linear" x1="54.2161" y1="47.9993" x2="95.3399" y2="70.7768" gradientUnits="userSpaceOnUse">
<stop stop-color="#EFD16E"/>
<stop offset="1" stop-color="#613B02"/>
</linearGradient>
<linearGradient id="paint2_linear" x1="35.5285" y1="55.21" x2="36.8235" y2="50.417" gradientUnits="userSpaceOnUse">
<stop offset="0.1619" stop-color="#A6C8CC"/>
<stop offset="0.3286" stop-color="#BFD7DA"/>
<stop offset="0.6754" stop-color="#EDF4F5"/>
<stop offset="0.8491" stop-color="white"/>
</linearGradient>
<linearGradient id="paint3_linear" x1="33.1604" y1="54.9699" x2="33.1604" y2="47.4517" gradientUnits="userSpaceOnUse">
<stop offset="0.1509" stop-color="white"/>
<stop offset="0.5418" stop-color="#FDFEFE"/>
<stop offset="0.6826" stop-color="#F6FAFA"/>
<stop offset="0.783" stop-color="#EBF2F3"/>
<stop offset="0.8641" stop-color="#DAE8EA"/>
<stop offset="0.9328" stop-color="#C4DBDD"/>
<stop offset="0.9934" stop-color="#A9CACE"/>
<stop offset="1" stop-color="#A6C8CC"/>
</linearGradient>
<linearGradient id="paint4_linear" x1="39.2588" y1="45.8721" x2="31.613" y2="45.8721" gradientUnits="userSpaceOnUse">
<stop stop-color="#A6C8CC"/>
<stop offset="0.00198829" stop-color="#A7C9CD"/>
<stop offset="0.0683341" stop-color="#C2D9DC"/>
<stop offset="0.143" stop-color="#D9E7E9"/>
<stop offset="0.2302" stop-color="#EAF2F3"/>
<stop offset="0.3365" stop-color="#F6F9FA"/>
<stop offset="0.4821" stop-color="#FDFEFE"/>
<stop offset="0.8491" stop-color="white"/>
</linearGradient>
<linearGradient id="paint5_linear" x1="40.8654" y1="47.4597" x2="40.8654" y2="39.7719" gradientUnits="userSpaceOnUse">
<stop offset="0.1509" stop-color="white"/>
<stop offset="0.5418" stop-color="#FDFEFE"/>
<stop offset="0.6826" stop-color="#F6FAFA"/>
<stop offset="0.783" stop-color="#EBF2F3"/>
<stop offset="0.8641" stop-color="#DAE8EA"/>
<stop offset="0.9328" stop-color="#C4DBDD"/>
<stop offset="0.9934" stop-color="#A9CACE"/>
<stop offset="1" stop-color="#A6C8CC"/>
</linearGradient>
<linearGradient id="paint6_linear" x1="56.6432" y1="53.4934" x2="48.8885" y2="53.4934" gradientUnits="userSpaceOnUse">
<stop stop-color="#A6C8CC"/>
<stop offset="0.00198829" stop-color="#A7C9CD"/>
<stop offset="0.0683341" stop-color="#C2D9DC"/>
<stop offset="0.143" stop-color="#D9E7E9"/>
<stop offset="0.2302" stop-color="#EAF2F3"/>
<stop offset="0.3365" stop-color="#F6F9FA"/>
<stop offset="0.4821" stop-color="#FDFEFE"/>
<stop offset="0.8491" stop-color="white"/>
</linearGradient>
<linearGradient id="paint7_linear" x1="58.254" y1="55.0038" x2="58.254" y2="39.8291" gradientUnits="userSpaceOnUse">
<stop offset="0.1509" stop-color="white"/>
<stop offset="0.5418" stop-color="#FDFEFE"/>
<stop offset="0.6826" stop-color="#F6FAFA"/>
<stop offset="0.783" stop-color="#EBF2F3"/>
<stop offset="0.8641" stop-color="#DAE8EA"/>
<stop offset="0.9328" stop-color="#C4DBDD"/>
<stop offset="0.9934" stop-color="#A9CACE"/>
<stop offset="1" stop-color="#A6C8CC"/>
</linearGradient>
<linearGradient id="paint8_linear" x1="50.4839" y1="51.9719" x2="50.4839" y2="36.7568" gradientUnits="userSpaceOnUse">
<stop stop-color="#A6C8CC"/>
<stop offset="0.0676848" stop-color="#BED7DA"/>
<stop offset="0.1551" stop-color="#D6E6E7"/>
<stop offset="0.255" stop-color="#E8F1F2"/>
<stop offset="0.373" stop-color="#F5F9F9"/>
<stop offset="0.5268" stop-color="#FDFEFE"/>
<stop offset="0.8491" stop-color="white"/>
</linearGradient>
<linearGradient id="paint9_linear" x1="70.1339" y1="55.21" x2="71.4277" y2="50.4184" gradientUnits="userSpaceOnUse">
<stop offset="0.1619" stop-color="#A6C8CC"/>
<stop offset="0.3286" stop-color="#BFD7DA"/>
<stop offset="0.6754" stop-color="#EDF4F5"/>
<stop offset="0.8491" stop-color="white"/>
</linearGradient>
<linearGradient id="paint10_linear" x1="67.7669" y1="54.9699" x2="67.7669" y2="47.4517" gradientUnits="userSpaceOnUse">
<stop offset="0.1509" stop-color="white"/>
<stop offset="0.5418" stop-color="#FDFEFE"/>
<stop offset="0.6826" stop-color="#F6FAFA"/>
<stop offset="0.783" stop-color="#EBF2F3"/>
<stop offset="0.8641" stop-color="#DAE8EA"/>
<stop offset="0.9328" stop-color="#C4DBDD"/>
<stop offset="0.9934" stop-color="#A9CACE"/>
<stop offset="1" stop-color="#A6C8CC"/>
</linearGradient>
<linearGradient id="paint11_linear" x1="73.8645" y1="45.8721" x2="66.2188" y2="45.8721" gradientUnits="userSpaceOnUse">
<stop stop-color="#A6C8CC"/>
<stop offset="0.00198829" stop-color="#A7C9CD"/>
<stop offset="0.0683341" stop-color="#C2D9DC"/>
<stop offset="0.143" stop-color="#D9E7E9"/>
<stop offset="0.2302" stop-color="#EAF2F3"/>
<stop offset="0.3365" stop-color="#F6F9FA"/>
<stop offset="0.4821" stop-color="#FDFEFE"/>
<stop offset="0.8491" stop-color="white"/>
</linearGradient>
<linearGradient id="paint12_linear" x1="75.4726" y1="47.4595" x2="75.4726" y2="39.7717" gradientUnits="userSpaceOnUse">
<stop offset="0.1509" stop-color="white"/>
<stop offset="0.5418" stop-color="#FDFEFE"/>
<stop offset="0.6826" stop-color="#F6FAFA"/>
<stop offset="0.783" stop-color="#EBF2F3"/>
<stop offset="0.8641" stop-color="#DAE8EA"/>
<stop offset="0.9328" stop-color="#C4DBDD"/>
<stop offset="0.9934" stop-color="#A9CACE"/>
<stop offset="1" stop-color="#A6C8CC"/>
</linearGradient>
<linearGradient id="paint13_linear" x1="91.2529" y1="53.4931" x2="83.4982" y2="53.4931" gradientUnits="userSpaceOnUse">
<stop stop-color="#A6C8CC"/>
<stop offset="0.00198829" stop-color="#A7C9CD"/>
<stop offset="0.0683341" stop-color="#C2D9DC"/>
<stop offset="0.143" stop-color="#D9E7E9"/>
<stop offset="0.2302" stop-color="#EAF2F3"/>
<stop offset="0.3365" stop-color="#F6F9FA"/>
<stop offset="0.4821" stop-color="#FDFEFE"/>
<stop offset="0.8491" stop-color="white"/>
</linearGradient>
<linearGradient id="paint14_linear" x1="92.8626" y1="55.0038" x2="92.8626" y2="39.8291" gradientUnits="userSpaceOnUse">
<stop offset="0.1509" stop-color="white"/>
<stop offset="0.5418" stop-color="#FDFEFE"/>
<stop offset="0.6826" stop-color="#F6FAFA"/>
<stop offset="0.783" stop-color="#EBF2F3"/>
<stop offset="0.8641" stop-color="#DAE8EA"/>
<stop offset="0.9328" stop-color="#C4DBDD"/>
<stop offset="0.9934" stop-color="#A9CACE"/>
<stop offset="1" stop-color="#A6C8CC"/>
</linearGradient>
<linearGradient id="paint15_linear" x1="85.089" y1="51.9719" x2="85.089" y2="36.7568" gradientUnits="userSpaceOnUse">
<stop stop-color="#A6C8CC"/>
<stop offset="0.0676848" stop-color="#BED7DA"/>
<stop offset="0.1551" stop-color="#D6E6E7"/>
<stop offset="0.255" stop-color="#E8F1F2"/>
<stop offset="0.373" stop-color="#F5F9F9"/>
<stop offset="0.5268" stop-color="#FDFEFE"/>
<stop offset="0.8491" stop-color="white"/>
</linearGradient>
<clipPath id="clip0">
<rect width="106" height="55" fill="white"/>
</clipPath>
</defs>
</svg>
