<svg width="623" height="189" viewBox="0 0 623 189" fill="none" xmlns="http://www.w3.org/2000/svg">
<path d="M621.897 128.444H621.764C621.63 128.444 621.63 128.444 621.496 128.578C621.496 128.578 620.962 129.38 619.892 130.583C618.288 132.454 616.551 134.325 614.68 136.063C607.596 142.478 599.844 148.092 591.557 152.77C589.686 153.839 587.681 154.908 585.543 155.978C584.741 156.379 583.805 156.913 582.869 157.314L579.127 159.052L578.86 159.185L578.058 159.586C576.454 160.388 574.85 161.057 573.112 161.725L567.9 163.863L562.42 165.868C560.014 166.804 557.475 167.606 554.801 168.408C553.465 168.809 551.995 169.343 550.524 169.744C532.08 175.091 513.234 178.967 494.121 180.972C476.211 182.976 458.034 184.046 439.99 183.912C435.446 183.912 430.634 183.912 425.956 183.778C400.695 183.11 375.166 181.239 349.905 178.031L330.124 175.358C325.847 174.823 321.436 174.021 317.159 173.353C314.887 172.952 312.481 172.551 310.076 172.284L290.161 168.942L269.177 165.467C248.593 162.126 230.149 159.185 212.64 156.512C219.189 152.102 225.471 147.156 231.218 141.676H228.678C222.798 146.889 216.382 151.701 209.833 155.978C201.546 154.775 193.393 153.572 185.641 152.503C154.232 148.092 127.901 144.75 101.571 142.746C93.1503 142.077 86.6012 141.81 80.7202 141.81C79.3837 141.81 78.4481 141.81 77.5125 141.81C71.6316 141.676 65.617 142.077 59.7361 143.147C59.4688 143.28 59.2015 143.28 58.8005 143.28C58.2659 143.414 57.5976 143.548 57.063 143.681C56.7957 143.815 56.3947 143.949 56.1274 143.949C55.5927 144.082 54.9245 144.35 54.3898 144.617C52.385 145.285 50.7811 146.622 49.5782 148.359C49.3109 148.894 49.0435 149.428 48.9099 149.963C48.7762 150.364 48.6426 150.765 48.6426 151.166C48.6426 151.3 48.6426 151.433 48.6426 151.567C48.6426 152.503 48.7762 153.572 49.0435 154.507L49.4445 155.844C49.4445 155.978 49.5782 156.111 49.5782 156.245C49.7118 156.512 49.7118 156.78 49.8455 157.047C50.1128 157.582 50.3801 158.116 50.6474 158.517L51.583 159.72C52.7859 161.057 54.2562 162.26 55.8601 163.195C57.3303 164.131 58.8005 164.933 60.4044 165.735C63.4785 167.205 66.5526 168.541 69.7604 169.744C82.1905 174.021 95.1552 176.962 108.254 178.298C115.605 179.1 122.956 179.501 130.307 179.501C135.653 179.501 140.866 179.234 145.945 178.833C157.84 177.897 169.602 175.492 180.963 171.883C189.918 168.942 198.606 165.066 206.892 160.255C225.738 163.195 245.92 166.537 268.508 170.546C274.523 171.616 280.671 172.685 286.552 173.754H286.686C294.17 175.091 301.923 176.427 309.407 177.63C311.813 178.031 314.219 178.432 316.491 178.833C320.768 179.501 325.179 180.303 329.456 180.838L349.371 183.645C374.766 186.852 400.428 188.59 426.09 188.991C428.228 188.991 430.367 188.991 432.372 188.991C453.222 189.125 474.073 187.788 494.789 185.115C514.036 182.709 533.149 178.432 551.727 172.551C566.029 168.007 579.795 161.725 592.626 154.106C600.913 149.161 608.665 143.28 615.482 136.464C617.888 134.058 620.16 131.385 622.031 128.578C622.031 128.578 622.031 128.444 621.897 128.444ZM180.027 170.012C168.8 173.487 157.172 175.625 145.544 176.561C141 176.962 136.455 177.095 131.777 177.095C124.025 177.095 116.273 176.561 108.521 175.759C95.6898 174.289 82.9924 171.348 70.8296 167.071C67.7555 166.002 64.8151 164.665 61.8746 163.195C59.0678 161.859 56.3947 159.987 54.1225 157.849L53.4542 157.047C53.3206 156.78 53.1869 156.512 53.0533 156.245C52.9196 155.978 52.9196 155.71 52.7859 155.443C52.7859 155.309 52.6523 155.176 52.6523 155.042L52.385 153.973C51.984 152.77 51.984 151.433 52.6523 150.23C53.4542 149.161 54.5235 148.359 55.8601 147.958C56.261 147.825 56.7956 147.557 57.1966 147.424C57.4639 147.29 57.7312 147.29 57.9986 147.156C58.5332 147.023 59.0678 146.889 59.4688 146.755C59.7361 146.755 60.0034 146.622 60.2707 146.622C65.3497 145.82 70.5623 145.419 75.7749 145.552C77.1115 145.552 78.5817 145.552 80.4529 145.552C86.3338 145.686 92.7494 145.953 101.17 146.622C127.5 148.76 153.697 152.369 184.973 156.913C191.255 157.849 197.403 158.784 203.551 159.72C196.066 164.131 188.18 167.472 180.027 170.012Z" fill="url(#paint0_linear)"/>
<path d="M122.891 113.266C125.164 115.939 127.837 118.212 130.777 120.083C133.049 121.553 135.856 122.221 138.529 122.355C140.668 122.489 142.806 121.82 144.41 120.484C145.88 119.281 146.816 117.543 146.682 115.538C146.816 113.667 146.014 111.796 144.677 110.459C143.341 109.257 140.267 108.054 135.589 106.851C129.173 105.113 124.629 102.841 121.956 100.034C119.149 96.9601 117.679 92.8167 117.946 88.5397C117.679 82.7925 120.085 77.1789 124.228 73.1692C128.639 69.1594 134.52 67.0209 140.668 67.1546C144.143 67.1546 147.618 67.6892 150.959 68.6248C154.301 69.5604 157.375 71.1643 160.182 73.0355L154.568 85.8666C152.697 84.2627 150.558 82.9261 148.286 81.9905C146.281 81.1886 144.143 80.6539 141.871 80.6539C139.999 80.5203 138.128 81.0549 136.658 82.2578C135.321 83.1934 134.653 84.6637 134.653 86.2675C134.653 87.7378 135.188 89.208 136.391 90.2772C138.529 91.6138 140.801 92.6831 143.207 93.084L144.009 93.3514C151.36 95.3562 156.172 97.4947 158.444 99.9005C160.048 101.504 161.251 103.509 162.053 105.781C162.855 108.187 163.256 110.727 163.256 113.266C163.523 119.548 160.984 125.696 156.439 130.107C151.895 134.384 145.747 136.523 138.128 136.523C133.851 136.523 129.574 135.721 125.565 134.25C121.555 132.513 117.812 129.973 114.738 126.899L122.891 113.266Z" fill="url(#paint1_linear)"/>
<path d="M174.35 134.518V68.7584H192.26V94.2869H216.184V68.7584H234.094V134.518H216.184V107.786H192.26V134.518H174.35Z" fill="url(#paint2_linear)"/>
<path d="M241.312 134.518L264.034 68.7584H286.488L309.21 134.518H291.434L288.092 122.756H262.564L259.089 134.518H241.312ZM266.44 109.925H284.216L277.533 88.2724C277.266 87.6041 276.999 86.5348 276.731 85.0646C276.33 83.5943 275.929 81.7232 275.395 79.451C274.994 81.0549 274.593 82.6588 274.192 84.129C273.791 85.5992 273.39 87.0694 272.989 88.406L266.44 109.925Z" fill="url(#paint3_linear)"/>
<path d="M316.427 134.518V68.7584H335.139C340.218 68.6247 345.431 68.892 350.509 69.8276C353.183 70.3622 355.722 71.5652 357.994 73.169C360.4 74.9066 362.271 77.3124 363.474 79.9856C364.811 82.926 365.479 86.0001 365.345 89.2079C365.613 93.6186 364.276 98.0292 361.603 101.638C358.796 104.979 354.92 107.252 350.643 108.054L368.553 134.518H348.237L333.134 108.722V134.518H316.427ZM333.268 99.7668H336.609C339.55 100.034 342.49 99.3658 345.03 97.7619C346.901 96.2917 347.836 93.8859 347.703 91.6137C347.97 89.0742 347.034 86.4011 345.163 84.5299C343.559 83.1933 340.753 82.3914 336.743 82.3914H333.134L333.268 99.7668Z" fill="url(#paint4_linear)"/>
<path d="M376.839 134.518V68.7584H395.017V134.518H376.839Z" fill="url(#paint5_linear)"/>
<path d="M410.387 68.7584H427.629L452.489 102.574C453.291 103.91 454.093 105.247 454.895 106.717C455.964 108.856 457.167 111.261 458.504 114.202C458.103 111.529 457.836 108.989 457.702 106.984C457.568 104.846 457.435 102.975 457.435 101.371V68.8921H474.676V134.651H457.435L432.574 100.702C431.639 99.3659 430.837 98.0293 430.169 96.5591C429.099 94.4206 427.896 92.0147 426.56 89.2079C426.961 92.0147 427.228 94.4206 427.362 96.5591C427.495 98.6976 427.629 100.569 427.629 102.173V134.651H410.387V68.7584Z" fill="url(#paint6_linear)"/>
<path d="M520.922 110.326V96.5593H556.207C556.207 96.9603 556.207 97.4949 556.341 98.0295C556.341 98.5642 556.341 99.3661 556.341 100.435C556.341 111.796 553.4 120.484 547.386 126.766C541.371 133.048 532.951 136.122 522.124 136.122C517.313 136.255 512.501 135.453 507.957 133.716C503.813 132.112 499.937 129.573 496.863 126.365C493.656 123.157 491.25 119.415 489.646 115.138C487.908 110.861 487.106 106.316 487.106 101.638C487.106 96.9603 487.908 92.4159 489.646 88.1389C493.121 79.7185 499.937 73.0357 508.491 69.6942C512.902 67.9567 517.58 67.1548 522.258 67.2884C528.139 67.1548 534.02 68.4913 539.366 71.1645C544.445 73.8376 548.722 77.7137 551.93 82.5253L536.426 90.0101C534.822 87.6043 532.683 85.7331 530.144 84.2629C527.738 83.0599 525.065 82.3916 522.392 82.3916C517.58 82.1243 512.902 84.1292 509.694 87.7379C506.62 91.3467 505.016 96.1583 505.016 102.44C505.016 108.722 506.62 113.667 509.694 117.276C512.902 120.885 517.58 122.89 522.392 122.622C526.401 122.756 530.411 121.553 533.753 119.281C536.693 117.142 538.698 113.935 539.099 110.326H520.922Z" fill="url(#paint7_linear)"/>
<path d="M84.4631 4.4106C86.7353 4.94523 88.8738 6.01448 90.8787 7.35105C92.2152 8.28665 93.1508 9.62322 93.5518 11.2271C93.8191 12.6973 93.4181 14.0339 92.4825 15.1032C91.146 16.5734 89.4084 17.6426 87.4036 18.1773C86.067 18.7119 84.7304 18.8455 83.2602 18.5782C82.191 18.4446 81.1217 18.0436 80.1861 17.3753C79.5178 16.9744 78.8495 16.4397 78.4486 15.7714C78.0476 15.2368 78.1813 14.8358 78.4486 14.7022C79.2505 14.5685 80.3198 14.1676 81.6563 13.7666C82.9929 13.3656 84.1958 12.831 85.2651 12.1627C87.4036 10.6925 88.2055 9.48956 87.8046 8.42031C87.4036 7.35105 85.9334 6.68277 83.3939 6.14814C79.7851 5.61351 76.3101 5.47986 72.7013 5.74717C67.355 6.01448 62.0088 6.68277 56.6625 7.61837C52.7864 8.28665 48.7767 9.08859 44.767 10.0242C40.7573 11.0934 36.7476 12.2964 32.7379 13.7666C28.8618 15.2368 24.9858 16.9744 21.3771 18.9792C17.7683 20.9841 14.4269 23.2562 11.3528 25.7957C8.94696 27.5332 6.9421 29.8054 5.60553 32.3449C4.66994 34.3498 4.66994 35.82 5.60553 36.8892C5.87285 37.2902 5.87285 37.4239 5.47188 37.5575C4.93725 37.5575 4.40262 37.5575 3.86799 37.2902C3.19971 37.0229 2.53142 36.6219 1.86314 36.0873C1.19485 35.5527 0.660227 34.7507 0.52657 33.8151C-0.275372 31.6766 -0.141715 29.2708 0.793884 27.1323C1.86314 24.8601 3.19971 22.8553 5.07091 21.1177C7.20942 19.1129 9.48158 17.3753 11.8874 15.7714C14.4269 14.1676 17.1 12.5637 19.9068 11.2271C24.8521 8.68762 29.9311 6.81642 35.1437 5.3462C46.1036 2.67306 57.4644 1.33649 68.8253 2.00477C74.1715 2.27209 79.3842 3.07403 84.4631 4.4106ZM24.1838 60.9475C24.7185 58.1407 25.3868 55.3339 26.3224 52.5271C27.258 49.5866 28.4609 46.5125 29.7974 43.3048C31.134 40.2307 32.6042 37.1566 34.0745 34.0824C35.5447 31.142 37.1486 28.4688 38.8861 25.6621C40.3563 23.3899 42.0939 21.1177 43.8314 18.9792C45.168 17.3753 46.6382 15.9051 48.3758 14.7022C49.3114 14.1676 50.247 13.7666 51.1826 13.4993C52.1182 13.232 53.0537 13.232 54.123 13.232C54.7913 13.232 55.5932 13.3656 56.2615 13.4993C56.7961 13.6329 57.0635 13.7666 56.7961 14.0339C55.3259 15.5041 53.722 17.3753 51.8508 19.7811C49.9796 22.187 48.1084 24.7265 46.1036 27.6669C44.0987 30.6074 42.2275 33.6815 40.2227 37.0229C38.2178 40.3643 36.4803 43.7057 34.8764 47.1808C33.4062 50.7896 31.936 54.2646 30.733 57.7397C29.6638 60.9475 28.8618 64.2889 28.4609 67.6303C28.3272 68.4323 28.0599 68.6996 27.3916 68.6996C26.7233 68.6996 26.055 68.2986 25.7877 67.764C25.1194 66.9621 24.7185 66.0265 24.3175 65.0909C23.9165 63.7543 23.9165 62.2841 24.1838 60.9475Z" fill="url(#paint8_linear)"/>
<path d="M93.551 5.74725C93.8183 7.08382 93.4173 8.55404 92.4817 9.6233C91.2788 11.6282 89.8086 13.3657 88.2047 15.1032C86.3335 17.1081 84.195 19.2466 81.7892 21.6524C79.3834 23.9246 76.7102 26.1968 74.0371 28.6026C71.3639 30.8748 68.5571 33.1469 65.884 35.2854C63.2109 37.4239 60.6714 39.2951 58.3992 41.0327C57.8646 41.9683 57.4636 42.9039 57.0626 43.5722C56.7953 44.1068 56.6617 44.5078 56.528 45.0424C56.3944 45.4434 56.528 45.4434 56.7953 45.176C57.1963 44.9087 57.8646 44.2405 59.0675 43.1712C60.1368 42.1019 61.3397 41.0327 62.6762 39.9634C64.0128 38.8942 65.2157 37.6913 66.5523 36.7557C67.4879 35.9537 68.4235 35.2854 69.4927 34.7508C70.161 34.4835 70.8293 34.3498 71.3639 34.6171C72.0322 34.8845 72.5669 35.2854 72.9678 35.8201C73.5024 36.3547 73.9034 36.8893 74.1707 37.4239C74.438 37.8249 74.5717 38.3595 74.839 38.8942C74.9727 39.2951 74.7054 40.0971 73.9034 41.0327C73.1015 41.9683 72.2995 43.0375 71.3639 44.1068C70.4283 45.1761 69.7601 46.1116 69.0918 47.0472C68.4235 47.8492 68.2898 48.3838 68.6908 48.6511C69.2254 48.6511 69.7601 48.5175 70.161 48.2502C71.0966 47.8492 71.8986 47.3146 72.8342 46.9136C73.9034 46.379 74.9727 45.7107 76.0419 44.9087C77.2448 44.1068 78.3141 43.4385 79.3834 42.6366C80.4526 41.9683 81.3882 41.3 82.1902 40.7654C82.7248 40.3644 83.2594 39.9634 83.794 39.4288C84.8633 38.6269 85.6652 38.4932 86.3335 38.8942C87.0018 39.2951 87.0018 39.8298 86.3335 40.6317C86.0662 41.0327 85.3979 41.701 84.4623 42.7702C83.5267 43.8395 82.3238 44.9087 81.1209 46.1116C79.7843 47.3146 78.3141 48.3838 76.8439 49.4531C75.5073 50.3887 74.0371 51.057 72.5669 51.4579C71.0966 51.8589 69.4927 51.8589 68.0225 51.4579C66.8196 51.1906 65.884 50.5223 65.0821 49.7204C64.4138 48.9184 63.8791 47.9828 63.6118 47.0472C63.3445 46.1116 63.3445 45.176 63.6118 44.2405C62.6762 45.0424 61.7406 45.8443 60.9387 46.5126C60.1368 47.1809 59.4685 47.8492 58.6665 48.3838C57.8646 49.0521 57.33 49.4531 56.929 49.854C56.3944 50.3887 55.8597 50.656 55.1914 50.9233C54.3895 51.1906 53.5876 51.3243 52.7856 51.3243C51.9837 51.3243 51.3154 51.1906 50.5135 50.9233C49.8452 50.656 49.4442 50.1214 49.3105 49.4531C49.4442 47.7155 49.8452 46.1117 50.6471 44.6414C51.9837 41.5673 53.4539 38.6269 55.0578 35.8201C56.929 32.4786 59.0675 28.8699 61.607 24.9939C64.0128 21.1178 66.5523 17.5091 69.2254 14.1676C71.6313 11.0935 74.1707 8.15307 76.9775 5.47994C78.8487 3.47508 81.2546 1.8712 83.794 0.801942C84.596 0.133657 85.3979 0 86.1999 0C87.1355 0 88.0711 0.267314 89.0067 0.668285C89.9423 1.06926 90.8779 1.73754 91.6798 2.53948C92.4817 3.47508 93.15 4.54434 93.551 5.74725ZM89.9423 3.60874C89.6749 3.34142 89.1403 3.47508 88.2047 4.27702C87.0018 5.21262 85.9325 6.28188 84.8633 7.48479C83.5267 8.82136 82.0565 10.4252 80.4526 12.2964C78.8487 14.1676 77.2448 16.1725 75.5073 18.1773C71.6313 22.8553 67.2206 28.3353 62.4089 34.4835C63.2109 33.8152 64.4138 32.746 66.1513 31.1421C67.8889 29.5382 69.8937 27.667 72.0322 25.5285C74.1707 23.39 76.4429 21.1178 78.7151 18.8456C80.9872 16.5735 82.9921 14.3013 84.7296 12.1628C86.1999 10.4252 87.5364 8.55404 88.873 6.68285C89.9423 5.21262 90.3432 4.14337 89.9423 3.60874Z" fill="url(#paint9_linear)"/>
<path d="M104.78 40.231C105.983 39.429 106.651 39.1617 106.651 39.429C106.785 39.6963 106.517 40.3646 105.983 41.1666C105.315 42.2358 104.513 43.4387 103.577 44.3743C102.508 45.5772 101.439 46.7802 100.236 47.8494C99.0327 48.9187 97.6961 49.9879 96.3595 50.7899C95.1566 51.5918 93.9537 52.1264 92.6172 52.3937C91.5479 52.5274 90.4786 52.2601 89.543 51.8591C88.2065 51.3245 86.8699 50.5225 85.8006 49.5869C84.5977 48.6514 83.6621 47.4484 82.8602 46.2455C82.0582 45.0426 81.7909 43.706 82.0583 42.2358C82.3256 41.0329 82.7265 39.9637 83.3948 39.0281C84.0631 38.0925 84.9987 37.1569 85.9343 36.3549C86.7362 35.6866 87.6718 35.0183 88.7411 34.4837C89.543 34.0827 90.345 33.8154 91.1469 33.8154C91.8152 33.8154 92.4835 33.9491 93.0181 34.2164C93.6864 34.4837 94.3547 34.8847 94.8893 35.4193C95.4239 35.9539 95.9586 36.4886 96.2259 37.1569C96.4932 37.8251 96.7605 38.4934 96.6269 39.1617C96.3595 40.0973 95.9586 40.8993 95.2903 41.5675C94.4883 42.5031 93.5527 43.3051 92.6172 44.2407C91.4142 45.3099 90.0777 46.3792 88.7411 47.3148C91.0133 47.5821 93.2854 47.0475 95.2903 45.9782C98.7654 44.3743 101.839 42.5031 104.78 40.231ZM93.9537 38.4934C93.6864 38.3598 93.1518 38.4934 92.2162 38.8944C91.2806 39.429 90.345 39.9637 89.543 40.6319C88.7411 41.3002 87.9392 42.1022 87.4045 43.0378C86.8699 43.706 86.7362 44.508 87.0036 45.3099C87.6718 44.909 88.2065 44.508 88.7411 43.9734C89.543 43.3051 90.345 42.5031 91.2806 41.7012C92.0825 40.8993 92.7508 40.231 93.2854 39.5627C93.9537 39.1617 94.0874 38.7607 93.9537 38.4934Z" fill="url(#paint10_linear)"/>
<path d="M104.379 83.1344C103.978 83.669 103.444 84.07 102.775 84.07C102.107 84.2037 101.305 84.2037 100.503 84.07C99.8348 83.9363 99.3002 83.5354 98.7656 83.0007C98.3646 82.3325 98.3646 81.5305 98.7656 80.8622C99.0329 80.194 99.7012 78.8574 100.77 76.9862C101.84 75.115 103.043 72.8428 104.646 70.3033C106.117 67.7639 107.854 64.9571 109.725 61.8829C111.597 58.8088 113.468 55.7347 115.339 52.6606C117.21 49.5865 119.081 46.5124 120.953 43.7056C122.824 40.7652 124.428 38.2257 126.032 35.8198C127.502 33.5477 128.838 31.6765 129.908 30.2063C130.442 29.2707 131.111 28.4687 131.912 27.8004C132.581 27.3995 133.249 27.3995 133.917 27.6668C134.586 27.9341 135.254 28.3351 135.922 28.8697C136.457 29.2707 136.991 29.9389 137.392 30.4736C137.793 30.8745 137.793 31.4092 137.66 31.9438C137.526 32.3448 137.259 32.7457 136.991 33.1467C136.59 33.5477 136.19 34.216 135.521 35.1516C134.853 35.9535 134.051 37.1564 133.115 38.493L129.373 43.5719C130.309 42.77 131.244 41.8344 132.18 40.8988C133.115 39.9632 134.051 39.1613 134.853 38.493C135.655 37.691 136.323 37.1564 136.858 36.6218C137.125 36.3545 137.526 36.0872 137.927 35.8198C138.328 35.6862 138.863 35.6862 139.397 35.8198C140.199 35.9535 140.868 36.0872 141.669 36.3545C142.471 36.6218 143.14 37.0228 143.808 37.4237C144.343 37.691 144.744 38.092 145.011 38.6266C145.145 38.894 145.011 39.4286 144.61 39.9632C144.209 40.6315 143.674 41.1661 143.273 41.8344C142.739 42.5027 142.07 43.171 141.402 43.8393C140.734 44.6412 140.066 45.1758 139.531 45.8441C138.996 46.3787 138.595 46.7797 138.328 47.448C138.061 47.849 138.061 48.2499 138.194 48.3836C138.462 48.5173 139.397 48.2499 140.868 47.448C142.338 46.6461 143.942 45.7105 145.679 44.6412C147.417 43.5719 149.021 42.5027 150.624 41.4334C151.694 40.7652 152.629 39.9632 153.699 39.1613C154.634 38.2257 155.302 37.9584 155.703 38.493C156.104 38.894 156.104 39.5622 155.57 40.4978C154.768 41.4334 153.966 42.2354 153.164 43.0373C151.827 44.2402 150.357 45.5768 148.753 46.9134C147.149 48.2499 145.546 49.5865 144.075 50.6558C143.14 51.4577 141.937 52.126 140.734 52.6606C139.798 52.7943 138.729 52.7943 137.793 52.6606C136.724 52.527 135.789 52.126 134.853 51.725C133.917 51.3241 133.115 50.7894 132.447 50.1211C131.779 49.5865 131.378 48.7846 131.378 47.849C131.378 47.3143 131.512 46.7797 131.779 46.3787C132.046 45.7105 132.447 45.1758 132.848 44.5075C133.249 43.8393 133.784 43.0373 134.318 42.2354C133.115 43.171 131.912 44.2402 130.71 45.3095C129.64 46.1114 128.571 47.1807 127.502 48.2499C126.433 49.3192 125.363 50.3885 124.561 51.4577C122.022 55.2001 119.081 59.8781 115.606 65.358C112.131 70.838 107.988 76.8525 104.379 83.1344Z" fill="url(#paint11_linear)"/>
<path d="M160.514 33.6816C161.316 33.6816 162.117 33.949 162.919 34.3499C163.588 34.7509 163.989 35.4192 164.122 36.0875C165.593 36.3548 166.795 37.1567 167.464 38.3596C168.132 39.5625 168.399 40.8991 168.266 42.3693C169.736 42.503 171.34 42.2357 172.676 41.5674C174.013 41.0328 175.082 40.0972 176.018 39.0279C176.419 38.6269 176.82 38.226 177.354 37.9587C177.622 37.825 178.023 37.6913 178.29 37.825C178.557 37.9587 178.691 38.226 178.691 38.4933C178.691 38.8943 178.557 39.2952 178.29 39.6962C177.221 41.4337 175.75 43.0376 174.013 44.2405C171.741 45.7108 169.201 46.6464 166.662 46.78C165.86 47.9829 164.791 49.1858 163.721 50.1214C162.518 51.1907 161.048 51.859 159.444 52.3936C158.509 52.6609 157.573 52.6609 156.771 52.3936C155.702 52.1263 154.633 51.7253 153.697 51.057C152.628 50.3888 151.826 49.4532 151.158 48.5176C150.489 47.4483 150.222 46.2454 150.356 45.0425C150.489 43.7059 150.89 42.3693 151.425 41.1664C151.96 39.8299 152.762 38.6269 153.697 37.5577C154.499 36.4884 155.568 35.5528 156.771 34.8846C157.84 33.949 159.177 33.6816 160.514 33.6816ZM156.905 48.7849C157.172 49.3195 157.84 49.3195 158.776 48.7849C159.845 48.2502 160.781 47.4483 161.583 46.5127C160.915 45.9781 160.246 45.3098 159.845 44.5079C159.311 43.5723 159.043 42.6367 158.776 41.5674C157.84 42.7703 157.039 44.2405 156.504 45.7108C156.237 46.78 156.237 47.9829 156.905 48.7849Z" fill="url(#paint12_linear)"/>
<path d="M191.255 35.1519C191.656 34.7509 192.191 34.6173 192.725 34.8846C193.393 35.0182 193.928 35.4192 194.463 35.8202C194.997 36.3548 195.532 36.8894 195.933 37.4241C196.334 37.9587 196.601 38.4933 196.869 39.1616C196.869 39.8299 196.601 40.6318 196.2 41.1665C195.666 41.9684 195.265 42.904 194.73 43.8396C194.195 44.6415 193.794 45.4435 193.527 46.2454C193.26 47.0474 193.26 47.4483 193.661 47.582C194.062 47.7157 194.864 47.3147 195.799 46.5127C196.735 45.7108 197.938 44.6415 199.141 43.4386C198.606 42.6367 198.339 41.7011 198.606 40.7655C198.74 39.8299 199.141 39.028 199.675 38.226C200.21 37.4241 200.878 36.7558 201.547 36.2212C202.215 35.6865 202.883 35.4192 203.819 35.4192H203.952C204.621 35.4192 205.289 35.5529 205.69 35.9538C206.091 36.3548 206.358 36.8894 206.358 37.4241C206.358 38.0924 206.225 38.7606 205.957 39.4289C205.69 40.2309 205.289 40.8992 204.888 41.7011C205.957 42.3694 207.16 42.6367 208.363 42.503C209.967 42.503 211.437 41.7011 212.64 40.6318C212.907 40.3645 213.308 40.0972 213.709 39.9636C213.977 39.8299 214.244 39.8299 214.645 39.8299C214.912 39.8299 215.046 40.0972 215.046 40.2309C215.046 40.4982 214.912 40.7655 214.511 41.3001C213.709 42.2357 212.774 43.1713 211.704 43.9733C210.769 44.7752 209.7 45.3098 208.497 45.7108C207.427 46.1118 206.225 46.3791 205.155 46.3791C203.952 46.3791 202.883 46.1118 201.814 45.5771C200.344 47.0474 198.606 48.5176 197.002 49.8542C195.666 50.9234 194.062 51.5917 192.458 51.7254C191.923 51.7254 191.522 51.5917 191.121 51.3244C190.587 51.0571 190.052 50.6561 189.517 50.1215C188.983 49.7205 188.582 49.1859 188.181 48.5176C187.513 47.582 187.245 46.5127 187.112 45.4435C187.112 44.9089 187.112 44.5079 187.112 43.9733C186.31 44.6415 185.641 45.4435 184.706 46.2454C183.77 47.0474 183.102 47.8493 182.166 48.6513C181.364 49.4532 180.562 49.9878 179.894 50.5225C179.359 50.9234 178.691 51.1907 178.023 51.3244C177.622 51.3244 177.087 51.1907 176.686 51.0571C176.152 50.7898 175.483 50.5225 174.949 50.1215C174.414 49.7205 173.88 49.3195 173.345 48.9186C172.944 48.5176 172.543 47.983 172.543 47.4483C172.543 46.5127 172.81 45.5771 173.211 44.7752C173.746 43.5723 174.281 42.2357 175.082 40.7655C175.751 39.2953 176.686 37.9587 177.488 36.6221C178.157 35.5529 178.959 34.4836 179.894 33.548C180.295 33.2807 180.83 33.147 181.364 33.2807C182.033 33.4144 182.701 33.6817 183.236 34.0826C183.904 34.4836 184.438 35.0182 184.839 35.5529C185.24 35.9538 185.641 36.4885 185.775 37.1568C185.775 37.6914 185.641 38.0924 185.374 38.4933C184.973 39.1616 184.572 39.8299 184.037 40.4982C183.503 41.3001 182.968 41.9684 182.434 42.7703C181.899 43.5723 181.364 44.2406 180.963 44.7752C180.696 45.1762 180.429 45.5771 180.161 46.1118C180.028 46.3791 180.295 46.5127 180.696 46.2454C181.231 45.9781 181.632 45.7108 182.166 45.3098C182.701 44.9089 183.369 44.2406 184.037 43.7059C184.706 43.0377 185.508 42.3694 186.31 41.5674C187.112 40.7655 187.78 40.0972 188.448 39.2953C188.849 38.4933 189.384 37.6914 189.918 37.0231C190.052 36.4885 190.587 35.8202 191.255 35.1519Z" fill="url(#paint13_linear)"/>
<path d="M235.095 40.231C236.298 39.429 236.967 39.1617 236.967 39.429C237.1 39.6963 236.833 40.3646 236.298 41.1666C235.63 42.2358 234.828 43.4387 233.892 44.3743C232.823 45.5772 231.754 46.7802 230.551 47.8494C229.348 48.9187 228.012 49.9879 226.675 50.7899C225.472 51.5918 224.269 52.1264 222.933 52.3937C221.863 52.5274 220.794 52.2601 219.858 51.8591C218.522 51.3245 217.185 50.5225 216.116 49.5869C214.913 48.6514 213.978 47.4484 213.176 46.2455C212.374 45.0426 212.106 43.706 212.374 42.2358C212.641 41.0329 213.042 39.9637 213.71 39.0281C214.379 38.0925 215.314 37.1569 216.25 36.3549C217.052 35.6866 217.987 35.0183 219.057 34.4837C219.858 34.0827 220.66 33.8154 221.462 33.8154C222.131 33.8154 222.799 33.9491 223.334 34.2164C224.002 34.4837 224.67 34.8847 225.205 35.4193C225.739 35.9539 226.274 36.4886 226.541 37.1569C226.809 37.8251 227.076 38.4934 226.942 39.1617C226.675 40.0973 226.274 40.8993 225.606 41.5675C224.804 42.5031 223.868 43.3051 222.933 44.2407C221.73 45.3099 220.393 46.3792 219.057 47.3148C221.329 47.5821 223.601 47.0475 225.606 45.9782C229.081 44.3743 232.155 42.5031 235.095 40.231ZM224.269 38.4934C224.002 38.3598 223.467 38.4934 222.532 38.8944C221.596 39.429 220.66 39.9637 219.858 40.6319C219.057 41.3002 218.255 42.1022 217.72 43.0378C217.185 43.706 217.052 44.508 217.319 45.3099C217.987 44.909 218.522 44.508 219.057 43.9734C219.858 43.3051 220.66 42.5031 221.596 41.7012C222.398 40.8993 223.066 40.231 223.601 39.5627C224.269 39.1617 224.403 38.7607 224.269 38.4934Z" fill="url(#paint14_linear)"/>
<path d="M238.971 38.6266C239.238 38.894 239.639 39.0276 240.04 38.894C240.575 38.894 241.109 38.7603 241.51 38.6266C242.045 38.493 242.446 38.2257 242.981 37.9584C243.382 37.8247 243.649 37.5574 243.916 37.2901C244.05 37.0228 244.317 36.8891 244.852 36.8891C245.386 36.8891 245.921 37.0228 246.456 37.1564C246.99 37.4237 247.525 37.691 247.926 38.092C248.327 38.493 248.728 38.894 248.861 39.5622C248.861 40.3642 248.594 41.0325 248.193 41.7008C247.659 42.6364 247.124 43.572 246.589 44.3739C246.055 45.1758 245.654 45.8441 245.253 46.7797C244.985 47.448 244.985 47.849 245.52 47.849C246.322 47.7153 247.124 47.3143 247.659 46.7797C248.594 46.1114 249.663 45.3095 250.599 44.3739C251.668 43.4383 252.604 42.5027 253.539 41.5671L255.544 39.5622C256.48 38.7603 257.282 38.493 257.95 38.6266C258.618 38.7603 258.485 39.4286 257.683 40.4978C257.282 41.0325 256.747 41.8344 255.945 42.9037C255.143 43.9729 254.341 45.0422 253.272 46.2451C252.337 47.448 251.267 48.5173 250.198 49.5865C249.262 50.5221 248.06 51.3241 246.857 51.8587C246.188 51.9923 245.52 51.9923 244.852 51.8587C243.916 51.725 242.981 51.3241 242.179 50.9231C241.243 50.5221 240.441 49.9875 239.773 49.1855C239.105 48.5173 238.837 47.7153 238.837 46.7797C238.837 45.8441 239.105 45.0422 239.372 44.2402C239.773 43.3046 240.174 42.369 240.708 41.2998C239.639 41.5671 238.436 41.7008 237.367 41.4334C236.298 41.2998 235.362 40.7652 234.56 40.0969C233.892 39.5622 233.357 38.7603 233.224 37.8247C233.224 36.7554 233.625 35.6862 234.427 34.8842C235.095 33.9486 236.164 33.2804 237.367 33.0131C238.169 32.8794 238.971 33.0131 239.639 33.5477C240.174 34.0823 240.441 34.8842 240.441 35.8198C240.307 36.8891 239.773 37.9584 238.971 38.6266Z" fill="url(#paint15_linear)"/>
<path d="M282.543 33.6816C283.345 33.6816 284.147 33.949 284.949 34.3499C285.617 34.7509 286.018 35.4192 286.152 36.0875C287.622 36.3548 288.825 37.1567 289.493 38.3596C290.161 39.5625 290.429 40.8991 290.295 42.3693C291.765 42.503 293.369 42.2357 294.706 41.5674C296.042 41.0328 297.112 40.0972 298.047 39.0279C298.448 38.6269 298.849 38.226 299.384 37.9587C299.651 37.825 300.052 37.6913 300.319 37.825C300.587 37.9587 300.72 38.226 300.72 38.4933C300.72 38.8943 300.587 39.2952 300.319 39.6962C299.25 41.4337 297.78 43.0376 296.042 44.2405C293.77 45.7108 291.231 46.6464 288.691 46.78C287.889 47.9829 286.82 49.1858 285.751 50.1214C284.548 51.1907 283.078 51.859 281.474 52.3936C280.538 52.6609 279.602 52.6609 278.801 52.3936C277.731 52.1263 276.662 51.7253 275.726 51.057C274.657 50.3888 273.855 49.4532 273.187 48.5176C272.519 47.4483 272.251 46.2454 272.385 45.0425C272.519 43.7059 272.92 42.3693 273.454 41.1664C273.989 39.8299 274.791 38.6269 275.726 37.5577C276.528 36.4884 277.598 35.5528 278.801 34.8846C279.87 33.949 281.206 33.6816 282.543 33.6816ZM278.801 48.7849C279.068 49.3195 279.736 49.3195 280.672 48.7849C281.741 48.2502 282.677 47.4483 283.479 46.5127C282.81 45.9781 282.142 45.3098 281.741 44.5079C281.206 43.5723 280.939 42.6367 280.672 41.5674C279.736 42.7703 278.934 44.2405 278.4 45.7108C278.132 46.78 278.266 47.9829 278.801 48.7849Z" fill="url(#paint16_linear)"/>
<path d="M337.208 5.34623C337.208 6.54914 336.807 7.6184 336.005 8.42034C334.668 10.2915 333.198 12.0291 331.594 13.7666C329.456 16.0388 326.649 18.9792 323.04 22.4543C319.431 25.9294 315.021 30.4737 309.541 35.82C306.6 38.7605 303.927 42.1019 301.655 45.577C302.457 45.577 303.259 45.3097 304.061 45.0423C305.264 44.5077 306.467 43.9731 307.67 43.4385C308.872 42.7702 310.209 42.1019 311.412 41.4336C312.348 40.899 313.283 40.3643 314.085 39.6961C314.486 39.2951 315.021 39.0278 315.555 38.8941C315.956 38.8941 316.09 39.0278 316.09 39.2951C316.09 39.6961 316.09 40.097 315.823 40.3643C315.555 40.899 315.288 41.2999 314.887 41.7009C311.412 44.9087 308.739 47.1809 306.734 48.6511C305.531 49.7203 304.194 50.5223 302.724 51.1906C302.056 51.3242 301.388 51.1906 300.853 50.9232C300.318 50.5223 299.784 50.1213 299.383 49.7203C295.774 54.7993 290.829 61.2148 289.626 62.9524C289.091 63.487 286.819 63.086 286.552 62.9524C288.69 57.0715 290.161 54.6656 292.834 48.7847C295.507 42.9038 294.972 42.7702 297.244 39.4288C299.516 36.0873 301.789 32.6122 304.328 29.1372C306.734 25.6621 309.273 22.3207 311.679 18.9792C314.085 15.6378 316.491 12.5637 318.763 10.0242C320.634 7.75205 322.639 5.61354 324.644 3.47503C325.713 2.13846 327.183 1.20286 328.787 0.668235C329.857 0.400921 331.06 0.400921 332.129 0.801892C333.064 1.06921 334 1.47018 334.668 2.13846C335.337 2.67309 335.871 3.20772 336.272 4.00966C336.94 4.14332 337.074 4.67794 337.208 5.34623ZM332.797 5.47989C332.53 5.34623 331.995 5.61354 331.06 6.41548C329.857 7.48474 328.787 8.554 327.718 9.75691C326.382 11.2271 324.911 12.831 323.174 14.8359C321.57 16.7071 319.832 18.8456 318.095 20.9841C316.357 23.1226 314.62 25.3948 312.882 27.6669C311.145 29.9391 309.541 32.0776 308.071 34.0825C310.877 31.4093 313.684 28.4689 316.758 25.2611C319.832 22.0533 322.639 19.1129 325.179 16.3061C327.718 13.4993 329.723 11.0935 331.193 9.08862C332.663 7.08377 333.198 5.88086 332.797 5.47989Z" fill="url(#paint17_linear)"/>
<defs>
<linearGradient id="paint0_linear" x1="111.465" y1="138.271" x2="520.189" y2="162.949" gradientUnits="userSpaceOnUse">
<stop stop-color="white"/>
<stop offset="1" stop-color="#94B6BD"/>
</linearGradient>
<linearGradient id="paint1_linear" x1="305.5" y1="97" x2="179.936" y2="-102.437" gradientUnits="userSpaceOnUse">
<stop stop-color="#EFD16E"/>
<stop offset="1" stop-color="#613B02"/>
</linearGradient>
<linearGradient id="paint2_linear" x1="305.5" y1="97" x2="179.936" y2="-102.437" gradientUnits="userSpaceOnUse">
<stop stop-color="#EFD16E"/>
<stop offset="1" stop-color="#613B02"/>
</linearGradient>
<linearGradient id="paint3_linear" x1="305.5" y1="97" x2="179.936" y2="-102.437" gradientUnits="userSpaceOnUse">
<stop stop-color="#EFD16E"/>
<stop offset="1" stop-color="#613B02"/>
</linearGradient>
<linearGradient id="paint4_linear" x1="305.5" y1="97" x2="179.936" y2="-102.437" gradientUnits="userSpaceOnUse">
<stop stop-color="#EFD16E"/>
<stop offset="1" stop-color="#613B02"/>
</linearGradient>
<linearGradient id="paint5_linear" x1="305.5" y1="97" x2="179.936" y2="-102.437" gradientUnits="userSpaceOnUse">
<stop stop-color="#EFD16E"/>
<stop offset="1" stop-color="#613B02"/>
</linearGradient>
<linearGradient id="paint6_linear" x1="305.5" y1="97" x2="179.936" y2="-102.437" gradientUnits="userSpaceOnUse">
<stop stop-color="#EFD16E"/>
<stop offset="1" stop-color="#613B02"/>
</linearGradient>
<linearGradient id="paint7_linear" x1="305.5" y1="97" x2="179.936" y2="-102.437" gradientUnits="userSpaceOnUse">
<stop stop-color="#EFD16E"/>
<stop offset="1" stop-color="#613B02"/>
</linearGradient>
<linearGradient id="paint8_linear" x1="-10.6076" y1="1.23139" x2="47.0658" y2="60.6676" gradientUnits="userSpaceOnUse">
<stop stop-color="white"/>
<stop offset="0.1848" stop-color="#F9FCFC"/>
<stop offset="0.4192" stop-color="#EAF2F3"/>
<stop offset="0.6806" stop-color="#D0E2E4"/>
<stop offset="0.9595" stop-color="#ACCCCF"/>
<stop offset="1" stop-color="#A6C8CC"/>
</linearGradient>
<linearGradient id="paint9_linear" x1="41.7847" y1="1.41172" x2="81.8498" y2="26.779" gradientUnits="userSpaceOnUse">
<stop stop-color="white"/>
<stop offset="0.1848" stop-color="#F9FCFC"/>
<stop offset="0.4192" stop-color="#EAF2F3"/>
<stop offset="0.6806" stop-color="#D0E2E4"/>
<stop offset="0.9595" stop-color="#ACCCCF"/>
<stop offset="1" stop-color="#A6C8CC"/>
</linearGradient>
<linearGradient id="paint10_linear" x1="76.7235" y1="33.8633" x2="92.7703" y2="49.616" gradientUnits="userSpaceOnUse">
<stop stop-color="white"/>
<stop offset="0.1848" stop-color="#F9FCFC"/>
<stop offset="0.4192" stop-color="#EAF2F3"/>
<stop offset="0.6806" stop-color="#D0E2E4"/>
<stop offset="0.9595" stop-color="#ACCCCF"/>
<stop offset="1" stop-color="#A6C8CC"/>
</linearGradient>
<linearGradient id="paint11_linear" x1="85.7407" y1="30.5734" x2="132.515" y2="65.3311" gradientUnits="userSpaceOnUse">
<stop stop-color="white"/>
<stop offset="0.1848" stop-color="#F9FCFC"/>
<stop offset="0.4192" stop-color="#EAF2F3"/>
<stop offset="0.6806" stop-color="#D0E2E4"/>
<stop offset="0.9595" stop-color="#ACCCCF"/>
<stop offset="1" stop-color="#A6C8CC"/>
</linearGradient>
<linearGradient id="paint12_linear" x1="145.46" y1="34.3677" x2="161.642" y2="52.389" gradientUnits="userSpaceOnUse">
<stop stop-color="white"/>
<stop offset="0.1848" stop-color="#F9FCFC"/>
<stop offset="0.4192" stop-color="#EAF2F3"/>
<stop offset="0.6806" stop-color="#D0E2E4"/>
<stop offset="0.9595" stop-color="#ACCCCF"/>
<stop offset="1" stop-color="#A6C8CC"/>
</linearGradient>
<linearGradient id="paint13_linear" x1="161.503" y1="34.0838" x2="175.411" y2="57.7362" gradientUnits="userSpaceOnUse">
<stop stop-color="white"/>
<stop offset="0.1848" stop-color="#F9FCFC"/>
<stop offset="0.4192" stop-color="#EAF2F3"/>
<stop offset="0.6806" stop-color="#D0E2E4"/>
<stop offset="0.9595" stop-color="#ACCCCF"/>
<stop offset="1" stop-color="#A6C8CC"/>
</linearGradient>
<linearGradient id="paint14_linear" x1="207.152" y1="33.9333" x2="223.203" y2="49.6758" gradientUnits="userSpaceOnUse">
<stop stop-color="white"/>
<stop offset="0.1848" stop-color="#F9FCFC"/>
<stop offset="0.4192" stop-color="#EAF2F3"/>
<stop offset="0.6806" stop-color="#D0E2E4"/>
<stop offset="0.9595" stop-color="#ACCCCF"/>
<stop offset="1" stop-color="#A6C8CC"/>
</linearGradient>
<linearGradient id="paint15_linear" x1="229.198" y1="33.0925" x2="245.56" y2="49.0656" gradientUnits="userSpaceOnUse">
<stop stop-color="white"/>
<stop offset="0.1848" stop-color="#F9FCFC"/>
<stop offset="0.4192" stop-color="#EAF2F3"/>
<stop offset="0.6806" stop-color="#D0E2E4"/>
<stop offset="0.9595" stop-color="#ACCCCF"/>
<stop offset="1" stop-color="#A6C8CC"/>
</linearGradient>
<linearGradient id="paint16_linear" x1="268.572" y1="35.0188" x2="284.759" y2="53.033" gradientUnits="userSpaceOnUse">
<stop stop-color="white"/>
<stop offset="0.1848" stop-color="#F9FCFC"/>
<stop offset="0.4192" stop-color="#EAF2F3"/>
<stop offset="0.6806" stop-color="#D0E2E4"/>
<stop offset="0.9595" stop-color="#ACCCCF"/>
<stop offset="1" stop-color="#A6C8CC"/>
</linearGradient>
<linearGradient id="paint17_linear" x1="277.236" y1="1.5561" x2="324.777" y2="29.7475" gradientUnits="userSpaceOnUse">
<stop stop-color="white"/>
<stop offset="0.1848" stop-color="#F9FCFC"/>
<stop offset="0.4192" stop-color="#EAF2F3"/>
<stop offset="0.6806" stop-color="#D0E2E4"/>
<stop offset="0.9595" stop-color="#ACCCCF"/>
<stop offset="1" stop-color="#A6C8CC"/>
</linearGradient>
</defs>
</svg>
