<svg width="17" height="185" viewBox="0 0 17 185" fill="none" xmlns="http://www.w3.org/2000/svg">
<path d="M8.34473 176.23C9.30631 176.23 10.1357 176.383 10.833 176.688C11.5257 176.993 12.068 177.422 12.46 177.973L13.8545 176.196L14.6816 177.091L13.0137 179.19C13.0957 179.518 13.1367 179.864 13.1367 180.229C13.1367 181.013 12.9453 181.708 12.5625 182.314C12.1751 182.92 11.626 183.392 10.915 183.729C10.1995 184.062 9.3724 184.232 8.43359 184.242L7.71582 184.242C6.75879 184.242 5.91341 184.075 5.17969 183.743C4.44596 183.41 3.88542 182.941 3.49805 182.334C3.10612 181.724 2.91016 181.026 2.91016 180.243C2.91016 179.441 3.10384 178.736 3.49121 178.13C3.87858 177.52 4.43685 177.05 5.16602 176.722C5.89062 176.394 6.73828 176.23 7.70898 176.23L8.34473 176.23ZM7.70215 177.542C6.53092 177.542 5.62858 177.777 4.99512 178.246C4.3571 178.711 4.03809 179.377 4.03809 180.243C4.03809 181.067 4.35482 181.719 4.98828 182.198C5.61719 182.672 6.49219 182.915 7.61328 182.929L8.34473 182.929C9.48405 182.929 10.3818 182.692 11.0381 182.218C11.6943 181.74 12.0225 181.077 12.0225 180.229C12.0225 179.381 11.7148 178.725 11.0996 178.26C10.4798 177.795 9.59342 177.556 8.44043 177.542L7.70215 177.542ZM3.04687 166.92L9.81445 166.92C10.7533 166.924 11.5212 167.22 12.1182 167.808C12.7152 168.392 13.0501 169.185 13.123 170.187L13.1367 170.536C13.1367 171.625 12.8428 172.493 12.2549 173.14C11.667 173.787 10.8581 174.116 9.82812 174.125L3.04687 174.125L3.04687 172.826L9.78711 172.826C10.5072 172.826 11.0677 172.628 11.4687 172.231C11.8652 171.835 12.0635 171.27 12.0635 170.536C12.0635 169.793 11.8652 169.226 11.4687 168.834C11.0723 168.437 10.514 168.239 9.79394 168.239L3.04687 168.239L3.04687 166.92ZM10.4023 159.223L10.4023 163.393L13 164.329L13 165.683L3.04687 161.882L3.04687 160.733L13 156.926L13 158.272L10.4023 159.223ZM9.32226 162.996L9.32226 159.612L4.66699 161.308L9.32226 162.996ZM8.04394 152.913L3.04687 150.316L3.04687 148.825L9.28808 152.257L13 152.257L13 153.57L9.28808 153.57L3.04687 157.001L3.04687 155.497L8.04394 152.913ZM11.9268 142.188L11.9268 137.471L13 137.471L13 143.508L3.04687 143.508L3.04687 142.188L11.9268 142.188ZM10.4023 130.062L10.4023 134.232L13 135.168L13 136.522L3.04687 132.721L3.04687 131.572L13 127.765L13 129.111L10.4023 130.062ZM9.32226 133.835L9.32226 130.451L4.66699 132.147L9.32226 133.835ZM14.6748 132.816C14.4697 132.816 14.2965 132.755 14.1553 132.632C14.014 132.504 13.9434 132.317 13.9434 132.071C13.9434 131.825 14.014 131.638 14.1553 131.511C14.2965 131.383 14.4697 131.319 14.6748 131.319C14.8799 131.319 15.0508 131.383 15.1875 131.511C15.3242 131.638 15.3926 131.825 15.3926 132.071C15.3926 132.317 15.3242 132.504 15.1875 132.632C15.0508 132.755 14.8799 132.816 14.6748 132.816ZM13 124.737L13 126.049L3.04687 126.049L3.04687 124.737L13 124.737Z" fill="white"/>
<path d="M13 110.648L13 111.968L5.33008 116.978L13 116.978L13 118.298L3.04687 118.298L3.04687 116.978L10.751 111.954L3.04687 111.954L3.04687 110.648L13 110.648ZM11.6943 100.689C12.1774 101.026 12.5397 101.498 12.7812 102.104C13.0182 102.705 13.1367 103.407 13.1367 104.209C13.1367 105.02 12.9476 105.74 12.5693 106.369C12.1865 106.998 11.6442 107.486 10.9424 107.832C10.2406 108.174 9.42708 108.349 8.50195 108.359L7.63379 108.359C6.13444 108.359 4.97233 108.01 4.14746 107.313C3.32259 106.611 2.91015 105.627 2.91015 104.36C2.91015 103.321 3.17675 102.484 3.70996 101.851C4.2386 101.217 4.99056 100.83 5.96582 100.689L5.96582 102.001C4.64876 102.247 3.99023 103.031 3.99023 104.353C3.99023 105.232 4.30013 105.9 4.91992 106.356C5.53515 106.807 6.42838 107.035 7.59961 107.039L8.41308 107.039C9.52962 107.039 10.4183 106.784 11.0791 106.274C11.7353 105.763 12.0635 105.073 12.0635 104.202C12.0635 103.71 12.0088 103.279 11.8994 102.91C11.79 102.541 11.6055 102.236 11.3457 101.994L9.11035 101.994L9.11035 104.298L8.04394 104.298L8.04394 100.689L11.6943 100.689ZM8.34472 90.5581C9.31998 90.5581 10.1722 90.7222 10.9014 91.0503C11.626 91.3784 12.1797 91.8432 12.5625 92.4448C12.9453 93.0464 13.1367 93.7482 13.1367 94.5503C13.1367 95.3341 12.9453 96.0291 12.5625 96.6352C12.1751 97.2414 11.626 97.713 10.915 98.0503C10.1995 98.383 9.37239 98.5539 8.43359 98.563L7.71582 98.563C6.75879 98.563 5.91341 98.3966 5.17968 98.0639C4.44596 97.7313 3.88541 97.2619 3.49804 96.6557C3.10612 96.0451 2.91015 95.3478 2.91015 94.5639C2.91015 93.7664 3.10384 93.0646 3.49121 92.4585C3.87402 91.8478 4.43229 91.3784 5.16601 91.0503C5.89518 90.7222 6.74511 90.5581 7.71582 90.5581L8.34472 90.5581ZM7.70214 91.8638C6.52181 91.8638 5.61718 92.1007 4.98828 92.5747C4.35481 93.0486 4.03808 93.7117 4.03808 94.5639C4.03808 95.3934 4.35481 96.0473 4.98828 96.5259C5.61718 96.9998 6.49218 97.2436 7.61328 97.2573L8.34472 97.2573C9.4886 97.2573 10.3887 97.0181 11.0449 96.5395C11.6966 96.0565 12.0225 95.3934 12.0225 94.5503C12.0225 93.7026 11.7148 93.0464 11.0996 92.5815C10.4798 92.1167 9.59342 91.8774 8.44043 91.8638L7.70214 91.8638ZM13 86.9011L13 88.2136L3.04687 88.2136L3.04687 86.9011L13 86.9011ZM8.56347 81.2823C8.2399 82.4079 7.84342 83.2282 7.37402 83.7432C6.90006 84.2536 6.31673 84.5088 5.62402 84.5088C4.84016 84.5088 4.19303 84.1967 3.68261 83.5723C3.16764 82.9434 2.91015 82.1276 2.91015 81.125C2.91015 80.4415 3.04231 79.8331 3.30664 79.2999C3.57096 78.7621 3.93554 78.3474 4.40039 78.0557C4.86523 77.7595 5.37337 77.6114 5.9248 77.6114L5.9248 78.9307C5.32324 78.9307 4.85156 79.1221 4.50976 79.5049C4.16341 79.8877 3.99023 80.4278 3.99023 81.125C3.99023 81.7722 4.13378 82.278 4.42089 82.6426C4.70345 83.0026 5.09765 83.1827 5.60351 83.1827C6.00911 83.1827 6.35319 83.0118 6.63574 82.67C6.91373 82.3236 7.16894 81.738 7.40136 80.9131C7.63378 80.0837 7.89127 79.4366 8.17382 78.9717C8.45182 78.5023 8.77766 78.156 9.15136 77.9327C9.52506 77.7048 9.96484 77.5909 10.4707 77.5909C11.2773 77.5909 11.9245 77.9053 12.4121 78.5342C12.8952 79.1631 13.1367 80.004 13.1367 81.0567C13.1367 81.7403 13.0068 82.3783 12.7471 82.9707C12.4827 83.5632 12.1227 84.0212 11.667 84.3448C11.2113 84.6638 10.694 84.8233 10.1152 84.8233L10.1152 83.504C10.7168 83.504 11.193 83.2829 11.5439 82.8409C11.8903 82.3943 12.0635 81.7995 12.0635 81.0567C12.0635 80.364 11.9222 79.8331 11.6396 79.4639C11.3571 79.0948 10.972 78.9102 10.4844 78.9102C9.99674 78.9102 9.62076 79.0811 9.35644 79.4229C9.08756 79.7647 8.82324 80.3845 8.56347 81.2823ZM10.4023 70.1263L10.4023 74.2962L13 75.2327L13 76.5863L3.04687 72.7855L3.04687 71.637L13 67.8294L13 69.1761L10.4023 70.1263ZM9.32226 73.8997L9.32226 70.5159L4.66699 72.2113L9.32226 73.8997ZM8.34472 58.6354C9.31998 58.6354 10.1722 58.7994 10.9014 59.1275C11.626 59.4557 12.1797 59.9205 12.5625 60.5221C12.9453 61.1236 13.1367 61.8255 13.1367 62.6275C13.1367 63.4114 12.9453 64.1064 12.5625 64.7125C12.1751 65.3186 11.626 65.7903 10.915 66.1275C10.1995 66.4602 9.37239 66.6311 8.43359 66.6402L7.71582 66.6402C6.75878 66.6402 5.91341 66.4739 5.17968 66.1412C4.44596 65.8085 3.88541 65.3391 3.49804 64.733C3.10611 64.1223 2.91015 63.4251 2.91015 62.6412C2.91015 61.8437 3.10384 61.1419 3.49121 60.5358C3.87402 59.9251 4.43229 59.4557 5.16601 59.1275C5.89518 58.7994 6.74511 58.6354 7.71581 58.6354L8.34472 58.6354ZM7.70214 59.941C6.5218 59.941 5.61718 60.178 4.98828 60.652C4.35481 61.1259 4.03808 61.789 4.03808 62.6412C4.03808 63.4706 4.35481 64.1246 4.98828 64.6031C5.61718 65.0771 6.49218 65.3209 7.61328 65.3346L8.34472 65.3346C9.4886 65.3346 10.3887 65.0953 11.0449 64.6168C11.6966 64.1337 12.0225 63.4706 12.0225 62.6275C12.0225 61.7799 11.7148 61.1236 11.0996 60.6588C10.4798 60.194 9.59342 59.9547 8.44042 59.941L7.70214 59.941ZM12.3369 57.2548C12.1182 57.2548 11.9359 57.191 11.79 57.0634C11.6442 56.9312 11.5713 56.7352 11.5713 56.4755C11.5713 56.2157 11.6442 56.0197 11.79 55.8876C11.9359 55.7509 12.1182 55.6825 12.3369 55.6825C12.5465 55.6825 12.722 55.7509 12.8633 55.8876C13.0046 56.0197 13.0752 56.2157 13.0752 56.4755C13.0752 56.7352 13.0046 56.9312 12.8633 57.0634C12.722 57.191 12.5465 57.2548 12.3369 57.2548ZM13 45.4631L13 46.7824L5.33007 51.7931L13 51.7931L13 53.1125L3.04687 53.1125L3.04687 51.7931L10.751 46.7687L3.04687 46.7687L3.04687 45.4631L13 45.4631ZM8.39941 37.226L8.39941 41.5395L11.9268 41.5395L11.9268 36.5288L13 36.5288L13 42.852L3.04687 42.852L3.04687 36.5971L4.12695 36.5971L4.12695 41.5395L7.32617 41.5395L7.32617 37.226L8.39941 37.226ZM4.12695 27.6013L4.12695 30.8005L13 30.8005L13 32.1062L4.12695 32.1062L4.12695 35.2986L3.04687 35.2986L3.04687 27.6013L4.12695 27.6013Z" fill="#EFD16E"/>
<path d="M7.60626 0.893799L8.56875 1.8563L5.61249 4.81255L14 4.81255L14 6.18755L5.61249 6.18755L8.56876 9.1438L7.60626 10.1063L3 5.50005L7.60626 0.893799Z" fill="white"/>
</svg>
