<svg width="20" height="167" viewBox="0 0 20 167" fill="none" xmlns="http://www.w3.org/2000/svg">
<path d="M11.8418 107.794C12.8945 107.917 13.708 108.307 14.2822 108.963C14.8519 109.615 15.1367 110.483 15.1367 111.567C15.1367 112.743 14.7152 113.687 13.8721 114.397C13.029 115.104 11.901 115.457 10.4883 115.457L9.53125 115.457C8.60612 115.457 7.79264 115.293 7.09082 114.965C6.389 114.632 5.85124 114.163 5.47754 113.557C5.09928 112.951 4.91016 112.249 4.91016 111.451C4.91016 110.394 5.20638 109.546 5.79883 108.908C6.38672 108.27 7.20247 107.899 8.24609 107.794L8.24609 109.113C7.45312 109.227 6.87891 109.476 6.52344 109.858C6.16797 110.237 5.99023 110.768 5.99023 111.451C5.99023 112.29 6.30013 112.948 6.91992 113.427C7.53971 113.901 8.42155 114.138 9.56543 114.138L10.5293 114.138C11.6094 114.138 12.4684 113.912 13.1064 113.461C13.7445 113.01 14.0635 112.379 14.0635 111.567C14.0635 110.838 13.8994 110.28 13.5713 109.893C13.2386 109.501 12.6621 109.241 11.8418 109.113L11.8418 107.794ZM14.2686 101.628C14.8473 102.12 15.1367 102.842 15.1367 103.795C15.1367 104.583 14.9089 105.185 14.4531 105.6C13.9928 106.01 13.3138 106.217 12.416 106.222L7.60351 106.222L7.60351 104.957L12.3818 104.957C13.5029 104.957 14.0635 104.501 14.0635 103.59C14.0635 102.624 13.7034 101.981 12.9834 101.662L7.60351 101.662L7.60351 100.397L15 100.397L15 101.601L14.2686 101.628ZM11.2334 98.8047C10.5088 98.8047 9.8571 98.6634 9.27832 98.3809C8.69954 98.0937 8.25293 97.6973 7.93848 97.1914C7.62402 96.681 7.4668 96.0999 7.4668 95.4482C7.4668 94.4411 7.81543 93.6276 8.51269 93.0078C9.20996 92.3835 10.1374 92.0713 11.2949 92.0713L11.3838 92.0713C12.1038 92.0713 12.751 92.2103 13.3252 92.4883C13.8949 92.7617 14.3392 93.1559 14.6582 93.6709C14.9772 94.1813 15.1367 94.7692 15.1367 95.4346C15.1367 96.4372 14.7881 97.2507 14.0908 97.875C13.3936 98.4948 12.4707 98.8047 11.3223 98.8047L11.2334 98.8047ZM11.3838 97.5332C12.2041 97.5332 12.8626 97.3441 13.3594 96.9658C13.8561 96.583 14.1045 96.0726 14.1045 95.4346C14.1045 94.792 13.8538 94.2816 13.3525 93.9033C12.8467 93.5251 12.1403 93.3359 11.2334 93.3359C10.4222 93.3359 9.76595 93.5296 9.26465 93.917C8.75879 94.2998 8.50586 94.8102 8.50586 95.4482C8.50586 96.0726 8.75423 96.5762 9.25098 96.959C9.74772 97.3418 10.4587 97.5332 11.3838 97.5332ZM6.37305 93.4248L6.4414 93.4248L6.4414 94.4707L5.2793 95.4961L6.44141 96.5146L6.44141 97.5605L6.35937 97.5605L4.5 95.8789L4.5 95.1133L6.37305 93.4248ZM16.6748 96.2207C16.4697 96.2207 16.2965 96.1592 16.1553 96.0361C16.014 95.9085 15.9434 95.7217 15.9434 95.4756C15.9434 95.2295 16.014 95.0426 16.1553 94.915C16.2965 94.7874 16.4697 94.7236 16.6748 94.7236C16.8799 94.7236 17.0508 94.7874 17.1875 94.915C17.3242 95.0426 17.3926 95.2295 17.3926 95.4756C17.3926 95.7217 17.3242 95.9085 17.1875 96.0361C17.0508 96.1592 16.8799 96.2207 16.6748 96.2207ZM7.60351 89.2891L8.5332 89.248C7.82226 88.6829 7.4668 87.9447 7.4668 87.0332C7.4668 85.4701 8.34863 84.6816 10.1123 84.668L15 84.668L15 85.9326L10.1055 85.9326C9.57226 85.9372 9.17806 86.0602 8.92285 86.3018C8.66764 86.5387 8.54004 86.9102 8.54004 87.416C8.54004 87.8262 8.64941 88.1862 8.86816 88.4961C9.08691 88.806 9.37402 89.0475 9.72949 89.2207L15 89.2207L15 90.4854L7.60351 90.4854L7.60351 89.2891ZM6.57129 72.0693L6.57129 73.3545L15 73.3545L15 74.5166L14.207 74.5781C14.8268 75.084 15.1367 75.7881 15.1367 76.6904C15.1367 77.5472 14.7858 78.2467 14.084 78.7891C13.3822 79.3268 12.4661 79.5957 11.3359 79.5957L11.2402 79.5957C10.1055 79.5957 9.19401 79.3268 8.50586 78.7891C7.81315 78.2513 7.46679 77.5472 7.46679 76.6768C7.46679 75.8109 7.76302 75.125 8.35547 74.6191L6.57129 74.6191L6.57129 76.4238L5.53906 76.4238L5.53906 74.6191L4.5 74.6191L4.5 73.3545L5.53906 73.3545L5.53906 72.0693L6.57129 72.0693ZM11.3838 78.3311C12.2223 78.3311 12.8786 78.1579 13.3525 77.8115C13.8265 77.4652 14.0635 76.9867 14.0635 76.376C14.0635 75.5739 13.7034 74.9883 12.9834 74.6191L9.58594 74.6191C8.88867 74.9974 8.54004 75.5785 8.54004 76.3623C8.54004 76.9821 8.77929 77.4652 9.25781 77.8115C9.73633 78.1579 10.445 78.3311 11.3838 78.3311ZM15.1367 67.8516C15.1367 68.8542 14.8086 69.6699 14.1523 70.2988C13.4915 70.9277 12.6097 71.2422 11.5068 71.2422L11.2744 71.2422C10.5407 71.2422 9.88672 71.1032 9.3125 70.8252C8.73372 70.5426 8.28255 70.1507 7.95898 69.6494C7.63086 69.1436 7.46679 68.5967 7.46679 68.0088C7.46679 67.0472 7.78353 66.2998 8.41699 65.7666C9.05045 65.2334 9.95735 64.9668 11.1377 64.9668L11.6641 64.9668L11.6641 69.9775C12.3932 69.9593 12.9834 69.7474 13.4346 69.3418C13.8812 68.9316 14.1045 68.4121 14.1045 67.7832C14.1045 67.3366 14.0133 66.9583 13.8311 66.6484C13.6488 66.3385 13.4072 66.0674 13.1064 65.835L13.708 65.0625C14.6605 65.6823 15.1367 66.612 15.1367 67.8516ZM8.50586 68.0088C8.50586 68.5192 8.69271 68.9476 9.0664 69.2939C9.43554 69.6403 9.95508 69.8545 10.625 69.9365L10.625 66.2314L10.5293 66.2314C9.88672 66.2679 9.38997 66.4411 9.03906 66.751C8.68359 67.0609 8.50586 67.4801 8.50586 68.0088ZM6.61914 65.5137L6.61914 66.6758L5.34765 68.0225L6.61914 69.3691L6.61914 70.5244L4.82812 68.665L4.82812 67.3799L6.61914 65.5137ZM5.67578 66.0811L4.78027 66.0879C4.76204 65.7917 4.7233 65.5775 4.66406 65.4453C4.60482 65.3086 4.5 65.2402 4.34961 65.2402C4.04427 65.2402 3.8916 65.5615 3.8916 66.2041L3.26269 66.1699C3.26269 65.5866 3.36295 65.1423 3.56347 64.8369C3.76399 64.5316 4.0306 64.3789 4.36328 64.3789C4.63216 64.3789 4.84179 64.4632 4.99218 64.6318C5.14258 64.8005 5.23372 65.0215 5.26562 65.2949L5.67578 65.3018L5.67578 66.0811ZM10.3037 57.543L7.60351 55.9023L7.60351 54.4258L11.2607 56.8457L15 54.3506L15 55.8135L12.2314 57.5225L15 59.2314L15 60.7012L11.2607 58.2061L7.60351 60.626L7.60351 59.1631L10.3037 57.543ZM15.1367 50.1465C15.1367 51.1491 14.8086 51.9648 14.1523 52.5937C13.4915 53.2227 12.6097 53.5371 11.5068 53.5371L11.2744 53.5371C10.5407 53.5371 9.88672 53.3981 9.3125 53.1201C8.73372 52.8376 8.28255 52.4456 7.95898 51.9443C7.63086 51.4385 7.46679 50.8916 7.46679 50.3037C7.46679 49.3421 7.78353 48.5947 8.41699 48.0615C9.05045 47.5283 9.95735 47.2617 11.1377 47.2617L11.6641 47.2617L11.6641 52.2725C12.3932 52.2542 12.9834 52.0423 13.4346 51.6367C13.8812 51.2266 14.1045 50.707 14.1045 50.0781C14.1045 49.6315 14.0133 49.2533 13.8311 48.9434C13.6488 48.6335 13.4072 48.3623 13.1064 48.1299L13.708 47.3574C14.6605 47.9772 15.1367 48.9069 15.1367 50.1465ZM8.50586 50.3037C8.50586 50.8141 8.69271 51.2425 9.0664 51.5889C9.43554 51.9352 9.95507 52.1494 10.625 52.2314L10.625 48.5264L10.5293 48.5264C9.88672 48.5628 9.38997 48.736 9.03906 49.0459C8.68359 49.3558 8.50586 49.7751 8.50586 50.3037ZM7.60351 44.6025L8.42382 44.5684C7.7858 44.026 7.46679 43.2946 7.46679 42.374C7.46679 41.3395 7.86328 40.6354 8.65625 40.2617C8.30078 40.0156 8.01367 39.6966 7.79492 39.3047C7.57617 38.9082 7.46679 38.4411 7.46679 37.9033C7.46679 36.2809 8.32584 35.4561 10.0439 35.4287L15 35.4287L15 36.6934L10.1191 36.6934C9.59049 36.6934 9.19629 36.8141 8.93652 37.0557C8.6722 37.2972 8.54004 37.7028 8.54004 38.2725C8.54004 38.7419 8.68131 39.1315 8.96386 39.4414C9.24186 39.7513 9.61783 39.9313 10.0918 39.9814L15 39.9814L15 41.2529L10.1533 41.2529C9.0778 41.2529 8.54004 41.7793 8.54004 42.832C8.54004 43.6615 8.89323 44.2288 9.59961 44.5342L15 44.5342L15 45.7988L7.60351 45.7988L7.60351 44.6025ZM5.8125 28.3262L7.60351 28.3262L7.60351 26.9453L8.58105 26.9453L8.58105 28.3262L13.168 28.3262C13.4642 28.3262 13.6875 28.2646 13.8379 28.1416C13.9837 28.0186 14.0566 27.8089 14.0566 27.5127C14.0566 27.3669 14.0293 27.1663 13.9746 26.9111L15 26.9111C15.0911 27.2438 15.1367 27.5674 15.1367 27.8818C15.1367 28.4469 14.9658 28.873 14.624 29.1602C14.2822 29.4473 13.7969 29.5908 13.168 29.5908L8.58105 29.5908L8.58105 30.9375L7.60351 30.9375L7.60351 29.5908L5.8125 29.5908L5.8125 28.3262ZM15 24.0879L15 25.3525L7.60351 25.3525L7.60351 24.0879L15 24.0879ZM5.6416 25.4551C5.43652 25.4551 5.26334 25.3936 5.12207 25.2705C4.98079 25.1429 4.91015 24.9561 4.91015 24.71C4.91015 24.4639 4.98079 24.277 5.12207 24.1494C5.26334 24.0218 5.43652 23.958 5.6416 23.958C5.84668 23.958 6.01757 24.0218 6.15429 24.1494C6.29101 24.277 6.35937 24.4639 6.35937 24.71C6.35937 24.9561 6.29101 25.1429 6.15429 25.2705C6.01757 25.3936 5.84668 25.4551 5.6416 25.4551ZM15.1367 18.9883C15.1367 19.9909 14.8086 20.8066 14.1523 21.4355C13.4915 22.0645 12.6097 22.3789 11.5068 22.3789L11.2744 22.3789C10.5407 22.3789 9.88671 22.2399 9.3125 21.9619C8.73372 21.6794 8.28255 21.2874 7.95898 20.7861C7.63085 20.2803 7.46679 19.7334 7.46679 19.1455C7.46679 18.1839 7.78352 17.4365 8.41699 16.9033C9.05045 16.3701 9.95735 16.1035 11.1377 16.1035L11.6641 16.1035L11.6641 21.1143C12.3932 21.096 12.9834 20.8841 13.4346 20.4785C13.8812 20.0684 14.1045 19.5488 14.1045 18.9199C14.1045 18.4733 14.0133 18.0951 13.8311 17.7852C13.6488 17.4753 13.4072 17.2041 13.1064 16.9717L13.708 16.1992C14.6605 16.819 15.1367 17.7487 15.1367 18.9883ZM8.50585 19.1455C8.50585 19.6559 8.6927 20.0843 9.0664 20.4307C9.43554 20.777 9.95507 20.9912 10.625 21.0732L10.625 17.3682L10.5293 17.3682C9.88671 17.4046 9.38997 17.5778 9.03906 17.8877C8.68359 18.1976 8.50585 18.6169 8.50585 19.1455ZM4.71191 19.665L4.71191 18.626L6.50976 16.6436L6.50976 17.9902L5.42285 19.1455L6.50976 20.3076L6.50976 21.6611L4.71191 19.665ZM3.52929 16.1787L3.52929 14.8115L5.2998 16.1855L5.2998 17.1494L3.52929 16.1787ZM11.3838 8.38574C12.5094 8.38574 13.4163 8.64323 14.1045 9.1582C14.7926 9.67318 15.1367 10.3704 15.1367 11.25C15.1367 12.1478 14.8519 12.8542 14.2822 13.3691L17.8437 13.3691L17.8437 14.6338L7.60351 14.6338L7.60351 13.4785L8.42382 13.417C7.7858 12.902 7.46679 12.1865 7.46679 11.2705C7.46679 10.3818 7.80175 9.68001 8.47167 9.16504C9.1416 8.64551 10.0736 8.38574 11.2676 8.38574L11.3838 8.38574ZM11.2402 9.65039C10.4062 9.65039 9.74772 9.82812 9.26464 10.1836C8.78157 10.5391 8.54003 11.0267 8.54003 11.6465C8.54003 12.4121 8.87955 12.9863 9.55859 13.3691L13.0928 13.3691C13.7672 12.9909 14.1045 12.4121 14.1045 11.6328C14.1045 11.0267 13.8652 10.5459 13.3867 10.1904C12.9036 9.8304 12.1881 9.65039 11.2402 9.65039Z" fill="#E6E6E6"/>
<rect x="0.5" y="134.5" width="19" height="32" rx="9.5" stroke="#FCFAF6"/>
<line x1="10" y1="143" x2="10" y2="152" stroke="#FCFAF6" stroke-width="2" stroke-linecap="round"/>
</svg>
